# xmcd
#
# Track frame offsets: 
#        182
#        13357
#        30527
#        45437
#        63417
#        79945
#        102427
#        123205
#        138745
#        158820
#
# Disc length: 2325 seconds
#
# Revision: 9
# Processed by: cddbd v1.5.2PL0 Copyright (c) Steve Scherf et al.
# Submitted via: ExactAudioCopy v1.0b3
#
DISCID=8209130a
DTITLE=Reba McEntire - Rumor Has It
DYEAR=1990
DGENRE=Country
TTITLE0=Climb That Mountain High
TTITLE1=Rumor Has It
TTITLE2=Waitin' For The Deal To Go Down
TTITLE3=You Lie
TTITLE4=Now You Tell Me
TTITLE5=Fancy
TTITLE6=Fallin' Out Of Love
TTITLE7=This Picture
TTITLE8=You Remember Me
TTITLE9=That's All She Wrote
EXTD=YEAR: 1990
EXTT0=
EXTT1=
EXTT2=
EXTT3=
EXTT4=
EXTT5=
EXTT6=
EXTT7=
EXTT8=
EXTT9=
PLAYORDER=
